<svg width="58" height="199" viewBox="0 0 58 199" fill="none" xmlns="http://www.w3.org/2000/svg">
<path d="M8.48197 0L15.8276 12.7229H1.13637L8.48197 0Z" fill="#0D7A7F"/>
<path d="M28.7082 0L36.0538 12.7229H21.3626L28.7082 0Z" fill="#0D7A7F"/>
<path d="M48.9344 0L56.28 12.7229H41.5888L48.9344 0Z" fill="#0D7A7F"/>
<path d="M8.48197 20.2262L15.8276 32.9492H1.13637L8.48197 20.2262Z" fill="#0D7A7F"/>
<path d="M28.7082 20.2262L36.0538 32.9492H21.3626L28.7082 20.2262Z" fill="#0D7A7F"/>
<path d="M48.9344 20.2262L56.28 32.9492H41.5888L48.9344 20.2262Z" fill="#0D7A7F"/>
<path d="M8.48197 40.4525L15.8276 53.1754H1.13637L8.48197 40.4525Z" fill="#0D7A7F"/>
<path d="M28.7082 40.4525L36.0538 53.1754H21.3626L28.7082 40.4525Z" fill="#0D7A7F"/>
<path d="M48.9344 40.4525L56.28 53.1754H41.5888L48.9344 40.4525Z" fill="#0D7A7F"/>
<path d="M8.48197 60.6787L15.8276 73.4016H1.13637L8.48197 60.6787Z" fill="#0D7A7F"/>
<path d="M28.7082 60.6787L36.0538 73.4016H21.3626L28.7082 60.6787Z" fill="#0D7A7F"/>
<path d="M48.9344 60.6787L56.28 73.4016H41.5888L48.9344 60.6787Z" fill="#0D7A7F"/>
<path d="M8.48197 80.9049L15.8276 93.6279H1.13637L8.48197 80.9049Z" fill="#0D7A7F"/>
<path d="M28.7082 80.9049L36.0538 93.6279H21.3626L28.7082 80.9049Z" fill="#0D7A7F"/>
<path d="M48.9344 80.9049L56.28 93.6279H41.5888L48.9344 80.9049Z" fill="#0D7A7F"/>
<path d="M8.48197 101.131L15.8276 113.854H1.13637L8.48197 101.131Z" fill="#0D7A7F"/>
<path d="M28.7082 101.131L36.0538 113.854H21.3626L28.7082 101.131Z" fill="#0D7A7F"/>
<path d="M48.9344 101.131L56.28 113.854H41.5888L48.9344 101.131Z" fill="#0D7A7F"/>
<path d="M8.48197 121.357L15.8276 134.08H1.13637L8.48197 121.357Z" fill="#0D7A7F"/>
<path d="M28.7082 121.357L36.0538 134.08H21.3626L28.7082 121.357Z" fill="#0D7A7F"/>
<path d="M48.9344 121.357L56.28 134.08H41.5888L48.9344 121.357Z" fill="#0D7A7F"/>
<path d="M8.48197 141.584L15.8276 154.307H1.13637L8.48197 141.584Z" fill="#0D7A7F"/>
<path d="M28.7082 141.584L36.0538 154.307H21.3626L28.7082 141.584Z" fill="#0D7A7F"/>
<path d="M48.9344 141.584L56.28 154.307H41.5888L48.9344 141.584Z" fill="#0D7A7F"/>
<path d="M8.48197 161.81L15.8276 174.533H1.13637L8.48197 161.81Z" fill="#0D7A7F"/>
<path d="M28.7082 161.81L36.0538 174.533H21.3626L28.7082 161.81Z" fill="#0D7A7F"/>
<path d="M48.9344 161.81L56.28 174.533H41.5888L48.9344 161.81Z" fill="#0D7A7F"/>
<path d="M8.48197 182.036L15.8276 194.759H1.13637L8.48197 182.036Z" fill="#0D7A7F"/>
<path d="M28.7082 182.036L36.0538 194.759H21.3626L28.7082 182.036Z" fill="#0D7A7F"/>
<path d="M48.9344 182.036L56.28 194.759H41.5888L48.9344 182.036Z" fill="#0D7A7F"/>
</svg>
