<svg width="30" height="315" viewBox="0 0 30 315" fill="none" xmlns="http://www.w3.org/2000/svg">
<rect width="2.57143" height="18" fill="#0D7A7F"/>
<rect x="13.5714" width="2.57143" height="18" fill="#0D7A7F"/>
<rect x="27.1428" width="2.57143" height="18" fill="#0D7A7F"/>
<rect y="21.2143" width="2.57143" height="18" fill="#0D7A7F"/>
<rect x="13.5714" y="21.2143" width="2.57143" height="18" fill="#0D7A7F"/>
<rect x="27.1428" y="21.2143" width="2.57143" height="18" fill="#0D7A7F"/>
<rect y="42.4286" width="2.57143" height="18" fill="#0D7A7F"/>
<rect x="13.5714" y="42.4286" width="2.57143" height="18" fill="#0D7A7F"/>
<rect x="27.1428" y="42.4286" width="2.57143" height="18" fill="#0D7A7F"/>
<rect y="63.6429" width="2.57143" height="18" fill="#0D7A7F"/>
<rect x="13.5714" y="63.6429" width="2.57143" height="18" fill="#0D7A7F"/>
<rect x="27.1428" y="63.6429" width="2.57143" height="18" fill="#0D7A7F"/>
<rect y="84.8571" width="2.57143" height="18" fill="#0D7A7F"/>
<rect x="13.5714" y="84.8571" width="2.57143" height="18" fill="#0D7A7F"/>
<rect x="27.1428" y="84.8571" width="2.57143" height="18" fill="#0D7A7F"/>
<rect y="106.071" width="2.57143" height="18" fill="#0D7A7F"/>
<rect x="13.5714" y="106.071" width="2.57143" height="18" fill="#0D7A7F"/>
<rect x="27.1428" y="106.071" width="2.57143" height="18" fill="#0D7A7F"/>
<rect y="127.286" width="2.57143" height="18" fill="#0D7A7F"/>
<rect x="13.5714" y="127.286" width="2.57143" height="18" fill="#0D7A7F"/>
<rect x="27.1428" y="127.286" width="2.57143" height="18" fill="#0D7A7F"/>
<rect y="148.5" width="2.57143" height="18" fill="#0D7A7F"/>
<rect x="13.5714" y="148.5" width="2.57143" height="18" fill="#0D7A7F"/>
<rect x="27.1428" y="148.5" width="2.57143" height="18" fill="#0D7A7F"/>
<rect y="169.714" width="2.57143" height="18" fill="#0D7A7F"/>
<rect x="13.5714" y="169.714" width="2.57143" height="18" fill="#0D7A7F"/>
<rect x="27.1428" y="169.714" width="2.57143" height="18" fill="#0D7A7F"/>
<rect y="190.929" width="2.57143" height="18" fill="#0D7A7F"/>
<rect x="13.5714" y="190.929" width="2.57143" height="18" fill="#0D7A7F"/>
<rect x="27.1428" y="190.929" width="2.57143" height="18" fill="#0D7A7F"/>
<rect y="212.143" width="2.57143" height="18" fill="#0D7A7F"/>
<rect x="13.5714" y="212.143" width="2.57143" height="18" fill="#0D7A7F"/>
<rect x="27.1428" y="212.143" width="2.57143" height="18" fill="#0D7A7F"/>
<rect y="233.357" width="2.57143" height="18" fill="#0D7A7F"/>
<rect x="13.5714" y="233.357" width="2.57143" height="18" fill="#0D7A7F"/>
<rect x="27.1428" y="233.357" width="2.57143" height="18" fill="#0D7A7F"/>
<rect y="254.571" width="2.57143" height="18" fill="#0D7A7F"/>
<rect x="13.5714" y="254.571" width="2.57143" height="18" fill="#0D7A7F"/>
<rect x="27.1428" y="254.571" width="2.57143" height="18" fill="#0D7A7F"/>
<rect y="275.786" width="2.57143" height="18" fill="#0D7A7F"/>
<rect x="13.5714" y="275.786" width="2.57143" height="18" fill="#0D7A7F"/>
<rect x="27.1428" y="275.786" width="2.57143" height="18" fill="#0D7A7F"/>
<rect y="297" width="2.57143" height="18" fill="#0D7A7F"/>
<rect x="13.5714" y="297" width="2.57143" height="18" fill="#0D7A7F"/>
<rect x="27.1428" y="297" width="2.57143" height="18" fill="#0D7A7F"/>
</svg>
