<svg width="73" height="73" viewBox="0 0 73 73" fill="none" xmlns="http://www.w3.org/2000/svg">
<circle cx="36.5" cy="36.5" r="35" stroke="black" stroke-width="3" stroke-dasharray="2 2"/>
<path d="M13.5881 27.062C13.1804 27.062 12.82 26.9911 12.5068 26.8493C12.1995 26.7075 11.9573 26.5096 11.78 26.2555C11.6027 26.0014 11.5082 25.7178 11.4964 25.4046H12.1522C12.1818 25.7059 12.3147 25.9718 12.5511 26.2023C12.7875 26.4268 13.1331 26.5391 13.5881 26.5391C14.0077 26.5391 14.3386 26.4327 14.5808 26.22C14.829 26.0014 14.9531 25.7266 14.9531 25.3957C14.9531 25.1298 14.8851 24.9171 14.7492 24.7575C14.6133 24.5921 14.4449 24.471 14.244 24.3941C14.0431 24.3114 13.7654 24.2228 13.4109 24.1282C12.9972 24.016 12.6693 23.9067 12.427 23.8003C12.1847 23.6939 11.9779 23.5285 11.8066 23.3039C11.6352 23.0794 11.5495 22.7751 11.5495 22.391C11.5495 22.0719 11.6323 21.7883 11.7977 21.5401C11.9632 21.286 12.1966 21.0881 12.4979 20.9463C12.7993 20.8044 13.145 20.7335 13.5349 20.7335C14.1081 20.7335 14.569 20.8754 14.9176 21.159C15.2722 21.4367 15.476 21.7972 15.5292 22.2403H14.8556C14.8142 21.9862 14.6754 21.7617 14.439 21.5667C14.2027 21.3658 13.8836 21.2653 13.4818 21.2653C13.1095 21.2653 12.7993 21.3658 12.5511 21.5667C12.3029 21.7617 12.1788 22.0306 12.1788 22.3733C12.1788 22.6333 12.2468 22.843 12.3827 23.0026C12.5186 23.1621 12.687 23.2833 12.8879 23.366C13.0947 23.4487 13.3724 23.5373 13.7211 23.6319C14.1229 23.7442 14.4479 23.8564 14.6961 23.9687C14.9442 24.0751 15.154 24.2405 15.3254 24.4651C15.4967 24.6896 15.5824 24.991 15.5824 25.3691C15.5824 25.6587 15.5056 25.9334 15.352 26.1934C15.1983 26.4534 14.9708 26.6632 14.6695 26.8227C14.3681 26.9823 14.0077 27.062 13.5881 27.062ZM16.4977 24.5803C16.4977 24.078 16.5981 23.6408 16.799 23.2685C17 22.8903 17.2777 22.6008 17.6322 22.3999C17.9868 22.1931 18.3915 22.0896 18.8465 22.0896C19.4433 22.0896 19.9338 22.2374 20.3178 22.5328C20.7078 22.8283 20.959 23.2301 21.0712 23.7383H20.4065C20.3237 23.3896 20.1435 23.1178 19.8658 22.9228C19.594 22.7219 19.2542 22.6215 18.8465 22.6215C18.5215 22.6215 18.229 22.6953 17.969 22.843C17.709 22.9908 17.5022 23.2124 17.3486 23.5078C17.2009 23.7973 17.127 24.1548 17.127 24.5803C17.127 25.0057 17.2009 25.3662 17.3486 25.6616C17.5022 25.9571 17.709 26.1787 17.969 26.3264C18.229 26.4741 18.5215 26.548 18.8465 26.548C19.2542 26.548 19.594 26.4505 19.8658 26.2555C20.1435 26.0546 20.3237 25.7768 20.4065 25.4223H21.0712C20.959 25.9187 20.7078 26.3175 20.3178 26.6189C19.9278 26.9202 19.4374 27.0709 18.8465 27.0709C18.3915 27.0709 17.9868 26.9705 17.6322 26.7696C17.2777 26.5627 17 26.2732 16.799 25.9009C16.5981 25.5228 16.4977 25.0825 16.4977 24.5803ZM22.8376 23.0203C22.9735 22.719 23.1803 22.4856 23.458 22.3201C23.7416 22.1546 24.0873 22.0719 24.495 22.0719V22.719H24.3266C23.8775 22.719 23.5171 22.8401 23.2453 23.0824C22.9735 23.3246 22.8376 23.7294 22.8376 24.2966V27H22.2171V22.1606H22.8376V23.0203ZM27.5467 27.0709C27.0918 27.0709 26.6811 26.9705 26.3147 26.7696C25.9543 26.5627 25.6677 26.2732 25.455 25.9009C25.2482 25.5228 25.1447 25.0825 25.1447 24.5803C25.1447 24.078 25.2511 23.6408 25.4638 23.2685C25.6766 22.8903 25.9661 22.6008 26.3324 22.3999C26.6988 22.1931 27.1095 22.0896 27.5645 22.0896C28.0195 22.0896 28.4301 22.1931 28.7965 22.3999C29.1688 22.6008 29.4583 22.8903 29.6651 23.2685C29.8778 23.6408 29.9842 24.078 29.9842 24.5803C29.9842 25.0766 29.8778 25.5139 29.6651 25.8921C29.4524 26.2702 29.1599 26.5627 28.7876 26.7696C28.4154 26.9705 28.0017 27.0709 27.5467 27.0709ZM27.5467 26.5302C27.8658 26.5302 28.1613 26.4593 28.4331 26.3175C28.7049 26.1698 28.9235 25.9512 29.089 25.6616C29.2603 25.3662 29.346 25.0057 29.346 24.5803C29.346 24.1548 29.2633 23.7973 29.0978 23.5078C28.9324 23.2124 28.7138 22.9937 28.442 22.8519C28.1701 22.7042 27.8747 22.6303 27.5556 22.6303C27.2365 22.6303 26.9411 22.7042 26.6693 22.8519C26.3974 22.9937 26.1788 23.2124 26.0134 23.5078C25.8538 23.7973 25.7741 24.1548 25.7741 24.5803C25.7741 25.0057 25.8538 25.3662 26.0134 25.6616C26.1788 25.9512 26.3945 26.1698 26.6604 26.3175C26.9322 26.4593 27.2277 26.5302 27.5467 26.5302ZM31.7356 20.441V27H31.1152V20.441H31.7356ZM33.7611 20.441V27H33.1406V20.441H33.7611ZM39.433 20.8044C40.1185 20.8044 40.7064 20.9285 41.1969 21.1767C41.6873 21.4249 42.0625 21.7824 42.3225 22.2492C42.5825 22.716 42.7125 23.2714 42.7125 23.9155C42.7125 24.5537 42.5825 25.1062 42.3225 25.573C42.0625 26.0339 41.6873 26.3884 41.1969 26.6366C40.7064 26.8789 40.1185 27 39.433 27H37.5983V20.8044H39.433ZM39.433 26.4859C40.2958 26.4859 40.9516 26.2614 41.4007 25.8123C41.8557 25.3573 42.0832 24.725 42.0832 23.9155C42.0832 23.1001 41.8557 22.4649 41.4007 22.0099C40.9516 21.549 40.2958 21.3185 39.433 21.3185H38.2187V26.4859H39.433ZM45.9748 27.0709C45.5198 27.0709 45.1091 26.9705 44.7427 26.7696C44.3823 26.5627 44.0957 26.2732 43.883 25.9009C43.6762 25.5228 43.5728 25.0825 43.5728 24.5803C43.5728 24.078 43.6791 23.6408 43.8918 23.2685C44.1046 22.8903 44.3941 22.6008 44.7605 22.3999C45.1268 22.1931 45.5375 22.0896 45.9925 22.0896C46.4475 22.0896 46.8581 22.1931 47.2245 22.3999C47.5968 22.6008 47.8863 22.8903 48.0931 23.2685C48.3058 23.6408 48.4122 24.078 48.4122 24.5803C48.4122 25.0766 48.3058 25.5139 48.0931 25.8921C47.8804 26.2702 47.5879 26.5627 47.2156 26.7696C46.8434 26.9705 46.4297 27.0709 45.9748 27.0709ZM45.9748 26.5302C46.2938 26.5302 46.5893 26.4593 46.8611 26.3175C47.1329 26.1698 47.3515 25.9512 47.517 25.6616C47.6884 25.3662 47.774 25.0057 47.774 24.5803C47.774 24.1548 47.6913 23.7973 47.5259 23.5078C47.3604 23.2124 47.1418 22.9937 46.87 22.8519C46.5981 22.7042 46.3027 22.6303 45.9836 22.6303C45.6645 22.6303 45.3691 22.7042 45.0973 22.8519C44.8255 22.9937 44.6068 23.2124 44.4414 23.5078C44.2818 23.7973 44.2021 24.1548 44.2021 24.5803C44.2021 25.0057 44.2818 25.3662 44.4414 25.6616C44.6068 25.9512 44.8225 26.1698 45.0884 26.3175C45.3602 26.4593 45.6557 26.5302 45.9748 26.5302ZM55.9249 22.1606L54.4092 27H53.7888L52.4504 22.9405L51.112 27H50.4827L48.9671 22.1606H49.5964L50.8018 26.3707L52.1579 22.1606H52.7783L54.1167 26.3796L55.3133 22.1606H55.9249ZM59.0397 22.0719C59.6188 22.0719 60.0915 22.2521 60.4579 22.6126C60.8243 22.9671 61.0074 23.4842 61.0074 24.1637V27H60.3959V24.2346C60.3959 23.7087 60.2629 23.3069 59.997 23.0292C59.737 22.7515 59.3795 22.6126 58.9245 22.6126C58.4577 22.6126 58.0855 22.7603 57.8077 23.0558C57.53 23.3512 57.3911 23.7855 57.3911 24.3587V27H56.7707V22.1606H57.3911V22.9849C57.5448 22.6894 57.7664 22.4649 58.0559 22.3112C58.3454 22.1517 58.6734 22.0719 59.0397 22.0719Z" fill="black"/>
<path d="M38 35C38 34.4477 37.5523 34 37 34C36.4477 34 36 34.4477 36 35L38 35ZM36.2929 61.7071C36.6834 62.0976 37.3166 62.0976 37.7071 61.7071L44.0711 55.3431C44.4616 54.9526 44.4616 54.3195 44.0711 53.9289C43.6805 53.5384 43.0474 53.5384 42.6569 53.9289L37 59.5858L31.3431 53.9289C30.9526 53.5384 30.3195 53.5384 29.9289 53.9289C29.5384 54.3195 29.5384 54.9526 29.9289 55.3431L36.2929 61.7071ZM36 35L36 61L38 61L38 35L36 35Z" fill="black"/>
</svg>
